<svg width="16" height="16" viewBox="0 0 16 16" fill="none" xmlns="http://www.w3.org/2000/svg">
<path fill-rule="evenodd" clip-rule="evenodd" d="M0.912233 9.86867V14.1667C0.912233 14.4427 1.13623 14.6667 1.41223 14.6667H2.48823C2.60664 14.6667 2.72122 14.6247 2.81156 14.5481C2.9019 14.4716 2.96215 14.3655 2.98157 14.2487L3.24557 12.6667H11.9122L12.1756 14.2487C12.195 14.3655 12.2552 14.4716 12.3456 14.5481C12.4359 14.6247 12.5505 14.6667 12.6689 14.6667H13.7456C13.8782 14.6667 14.0054 14.614 14.0991 14.5202C14.1929 14.4265 14.2456 14.2993 14.2456 14.1667V9.86867C14.2456 9.08495 14.0136 8.31876 13.5789 7.66667L13.0589 6.88667C13.0125 6.81723 12.9728 6.74357 12.9402 6.66667H13.6029C13.6958 6.66667 13.7869 6.64078 13.8659 6.59191C13.9449 6.54304 14.0087 6.47313 14.0502 6.39001L14.2169 6.05667C14.2549 5.98049 14.2729 5.89586 14.269 5.81081C14.2652 5.72575 14.2397 5.64308 14.195 5.57063C14.1502 5.49819 14.0877 5.43837 14.0134 5.39684C13.9391 5.35531 13.8554 5.33345 13.7702 5.33334H12.6456L12.4389 4.30267C12.376 3.98878 12.2241 3.69963 12.0012 3.4698C11.7784 3.23997 11.494 3.07919 11.1822 3.00667C10.2076 2.78001 9.00623 2.66667 7.5789 2.66667C6.1509 2.66667 4.95023 2.78001 3.97557 3.00667C3.66363 3.07908 3.37916 3.23981 3.15618 3.46965C2.9332 3.69948 2.78116 3.98869 2.71823 4.30267L2.51157 5.33334H1.38823C1.30309 5.33345 1.21938 5.35531 1.14505 5.39684C1.07072 5.43837 1.00823 5.49819 0.963491 5.57063C0.918756 5.64308 0.893261 5.72575 0.889424 5.81081C0.885587 5.89586 0.903535 5.98049 0.941566 6.05667L1.10823 6.39001C1.14968 6.47303 1.21341 6.54288 1.2923 6.59174C1.37118 6.6406 1.46211 6.66654 1.5549 6.66667H2.21823C2.18566 6.74356 2.14593 6.81722 2.09957 6.88667L1.5789 7.66667C1.14423 8.31867 0.912233 9.08467 0.912233 9.86867ZM11.5529 6.66934C11.5988 6.89992 11.675 7.12341 11.7796 7.33401H3.37823C3.4829 7.12401 3.5589 6.90067 3.6049 6.66934L4.02623 4.56467C4.03867 4.50175 4.069 4.44375 4.11358 4.39763C4.15816 4.35151 4.2151 4.31923 4.27757 4.30467C5.1429 4.10467 6.24557 4.00001 7.5789 4.00001C8.91223 4.00001 10.0149 4.10401 10.8802 4.30534C10.9427 4.31974 10.9998 4.35187 11.0445 4.39786C11.0892 4.44386 11.1196 4.50178 11.1322 4.56467L11.5529 6.66934ZM3.24557 10.6667C3.51078 10.6667 3.76514 10.5613 3.95267 10.3738C4.14021 10.1862 4.24557 9.93189 4.24557 9.66667C4.24557 9.40146 4.14021 9.1471 3.95267 8.95957C3.76514 8.77203 3.51078 8.66667 3.24557 8.66667C2.98035 8.66667 2.726 8.77203 2.53846 8.95957C2.35092 9.1471 2.24557 9.40146 2.24557 9.66667C2.24557 9.93189 2.35092 10.1862 2.53846 10.3738C2.726 10.5613 2.98035 10.6667 3.24557 10.6667ZM12.9122 9.66667C12.9122 9.93189 12.8069 10.1862 12.6193 10.3738C12.4318 10.5613 12.1774 10.6667 11.9122 10.6667C11.647 10.6667 11.3927 10.5613 11.2051 10.3738C11.0176 10.1862 10.9122 9.93189 10.9122 9.66667C10.9122 9.40146 11.0176 9.1471 11.2051 8.95957C11.3927 8.77203 11.647 8.66667 11.9122 8.66667C12.1774 8.66667 12.4318 8.77203 12.6193 8.95957C12.8069 9.1471 12.9122 9.40146 12.9122 9.66667Z" fill="white" fill-opacity="0.8"/>
</svg>
