<svg width="21" height="23" viewBox="0 0 21 23" fill="none" xmlns="http://www.w3.org/2000/svg">
<path d="M16.8224 12.9121C15.9534 7.58966 9.50862 1.36207 9.21897 1.10862C9.07414 0.963793 8.8569 0.963793 8.71207 1.10862C8.38621 1.39828 1 8.49483 1 14.0345C1 18.4155 4.58448 22 8.96552 22C10.1966 22 11.3914 21.7103 12.4776 21.1672C13.2379 21.6741 14.1431 22 15.1207 22C17.7276 22 19.8276 19.9 19.8276 17.2931C19.8276 15.3017 18.5966 13.6 16.8224 12.9121ZM8.96552 21.2759C4.98276 21.2759 1.72414 18.0172 1.72414 14.0345C1.72414 9.36379 7.66207 3.17241 8.96552 1.86897C10.1603 3.06379 15.1207 8.24138 16.0621 12.6948C15.7362 12.6224 15.4466 12.5862 15.1207 12.5862C12.5138 12.5862 10.4138 14.6862 10.4138 17.2931C10.4138 18.6328 10.9569 19.8276 11.8621 20.6603C10.9569 21.0586 9.97931 21.2759 8.96552 21.2759ZM15.1207 21.2759C12.9121 21.2759 11.1379 19.5017 11.1379 17.2931C11.1379 15.0845 12.9121 13.3103 15.1207 13.3103C17.3293 13.3103 19.1034 15.0845 19.1034 17.2931C19.1034 19.5017 17.3293 21.2759 15.1207 21.2759Z" fill="white" fill-opacity="0.8"/>
<path d="M19.9776 17.2931C19.9776 15.2679 18.7435 13.5331 16.9563 12.8039C16.4912 10.1267 14.6619 7.2507 12.9218 5.01729C11.1736 2.77355 9.49574 1.15374 9.32144 0.998999C9.11905 0.800214 8.8115 0.800333 8.60923 0.999358C8.41997 1.16918 6.49671 3.01585 4.61407 5.51249C3.66683 6.76866 2.72728 8.19276 2.02403 9.65344C1.32146 11.1127 0.85 12.6182 0.85 14.0345C0.85 18.4984 4.50164 22.15 8.96552 22.15C10.191 22.15 11.3812 21.8683 12.4671 21.3397C13.2331 21.8333 14.1403 22.15 15.1207 22.15C17.8104 22.15 19.9776 19.9828 19.9776 17.2931ZM8.96552 21.1259C5.0656 21.1259 1.87414 17.9344 1.87414 14.0345C1.87414 12.8967 2.23633 11.6563 2.80864 10.409C3.38037 9.163 4.15761 7.91901 4.97788 6.77649C6.53631 4.60582 8.24212 2.81229 8.96551 2.08164C9.62222 2.74504 11.07 4.26665 12.489 6.15017C13.9423 8.07911 15.3528 10.3715 15.8648 12.5023C15.6173 12.4584 15.3801 12.4362 15.1207 12.4362C12.431 12.4362 10.2638 14.6034 10.2638 17.2931C10.2638 18.5907 10.7584 19.7593 11.5947 20.6103C10.7665 20.9449 9.88092 21.1259 8.96552 21.1259ZM15.1207 21.1259C12.9949 21.1259 11.2879 19.4189 11.2879 17.2931C11.2879 15.1673 12.9949 13.4603 15.1207 13.4603C17.2465 13.4603 18.9534 15.1673 18.9534 17.2931C18.9534 19.4189 17.2465 21.1259 15.1207 21.1259Z" stroke="white" stroke-opacity="0.8" stroke-width="0.3"/>
<path d="M8.96523 19.4655C5.96006 19.4655 3.5342 17.0397 3.5342 14.0345C3.5342 13.8172 3.38937 13.6724 3.17213 13.6724C2.95489 13.6724 2.81006 13.8172 2.81006 14.0345C2.81006 17.4379 5.56178 20.1897 8.96523 20.1897C9.18247 20.1897 9.3273 20.0448 9.3273 19.8276C9.3273 19.6103 9.18247 19.4655 8.96523 19.4655Z" fill="white" fill-opacity="0.8"/>
<path d="M8.96523 19.4155C5.98767 19.4155 3.5842 17.012 3.5842 14.0345C3.5842 13.9145 3.54398 13.8106 3.46998 13.7366C3.39598 13.6626 3.29211 13.6224 3.17213 13.6224C3.05214 13.6224 2.94827 13.6626 2.87427 13.7366C2.80027 13.8106 2.76006 13.9145 2.76006 14.0345C2.76006 17.4655 5.53417 20.2397 8.96523 20.2397C9.08521 20.2397 9.18909 20.1994 9.26309 20.1254C9.33709 20.0514 9.3773 19.9476 9.3773 19.8276C9.3773 19.7076 9.33709 19.6037 9.26309 19.5297C9.18909 19.4557 9.08521 19.4155 8.96523 19.4155Z" stroke="white" stroke-opacity="0.8" stroke-width="0.1"/>
<path d="M16.3518 14.4328C16.1707 14.3603 15.9535 14.4328 15.8811 14.6138L13.7087 19.6828C13.6362 19.8638 13.7087 20.081 13.8897 20.1535C13.9259 20.1897 13.9983 20.1897 14.0345 20.1897C14.1793 20.1897 14.3242 20.1172 14.3604 19.9724L16.5328 14.9035C16.6052 14.7224 16.5328 14.5052 16.3518 14.4328Z" fill="white" fill-opacity="0.8"/>
<path d="M14.7584 15.8448C14.7584 15.2293 14.2877 14.7586 13.6721 14.7586C13.0566 14.7586 12.5859 15.2293 12.5859 15.8448C12.5859 16.4603 13.0566 16.931 13.6721 16.931C14.2877 16.931 14.7584 16.4603 14.7584 15.8448ZM13.3101 15.8448C13.3101 15.6276 13.4549 15.4828 13.6721 15.4828C13.8894 15.4828 14.0342 15.6276 14.0342 15.8448C14.0342 16.0621 13.8894 16.2069 13.6721 16.2069C13.4549 16.2069 13.3101 16.0621 13.3101 15.8448Z" fill="white" fill-opacity="0.8"/>
<path d="M16.5689 17.6552C15.9534 17.6552 15.4827 18.1259 15.4827 18.7414C15.4827 19.3569 15.9534 19.8276 16.5689 19.8276C17.1844 19.8276 17.6551 19.3569 17.6551 18.7414C17.6551 18.1259 17.1844 17.6552 16.5689 17.6552ZM16.5689 19.1034C16.3516 19.1034 16.2068 18.9586 16.2068 18.7414C16.2068 18.5241 16.3516 18.3793 16.5689 18.3793C16.7861 18.3793 16.9309 18.5241 16.9309 18.7414C16.9309 18.9586 16.7861 19.1034 16.5689 19.1034Z" fill="white" fill-opacity="0.8"/>
</svg>
