<svg width="17" height="26" viewBox="0 0 17 26" fill="none" xmlns="http://www.w3.org/2000/svg">
<path d="M16.7012 15.5563C16.7012 13.2654 14.2921 8.27167 11.6888 3.2165C11.5022 2.85211 11.3381 2.53517 11.2058 2.27461C10.2017 0.295555 8.96233 0 8.3125 0C7.18589 0 6.16 0.808889 5.42344 2.27772C5.30678 2.51028 5.16367 2.79222 4.99994 3.11422C2.40333 8.22889 0 13.2763 0 15.5556C0 19.9477 3.41056 23.5507 7.721 23.8747V25.2544C7.721 25.6838 8.06944 26.0322 8.49878 26.0322C8.92811 26.0322 9.27656 25.6838 9.27656 25.2544V23.8525C13.4466 23.3897 16.7012 19.8473 16.7012 15.5563ZM8.88767 22.3242V20.0515L11.7231 17.2157C11.8751 17.0637 11.8751 16.8183 11.7231 16.6662C11.571 16.5138 11.3252 16.5138 11.1732 16.6662L8.88767 18.9517V11.3983L11.067 9.219C11.2191 9.06694 11.2191 8.82117 11.067 8.66911C10.9146 8.51706 10.6692 8.51706 10.5171 8.66911L8.88805 10.2982V9.30922C8.88805 9.09417 8.71422 8.92033 8.49917 8.92033C8.28411 8.92033 8.11028 9.09417 8.11028 9.30922V11.0759L8.08655 11.0997C7.9345 11.2517 7.9345 11.4975 8.08655 11.6496C8.09355 11.6566 8.10289 11.6589 8.11028 11.6655V15.8344L6.07872 13.8024C5.92667 13.65 5.68089 13.65 5.52883 13.8024C5.37678 13.9545 5.37678 14.1999 5.52883 14.3523L8.07605 16.8999C8.08617 16.9101 8.09939 16.9139 8.11028 16.9229V19.7295L8.08655 19.7532C7.9345 19.9053 7.9345 20.1511 8.08655 20.3031C8.09355 20.3101 8.10289 20.3124 8.11028 20.3191V22.3393C4.47494 22.2114 1.55556 19.222 1.55556 15.5567C1.55556 13.335 5.06606 6.42133 6.38711 3.81928C6.552 3.49456 6.69628 3.21028 6.8145 2.97539C7.26017 2.08639 7.82017 1.55594 8.31289 1.55594C8.81222 1.55594 9.36056 2.07433 9.81944 2.97889C9.95283 3.24139 10.1181 3.56222 10.3063 3.92894C11.7546 6.741 15.1461 13.3268 15.1461 15.5567C15.1457 19.1217 12.383 22.0488 8.88767 22.3242Z" fill="white" fill-opacity="0.8"/>
<path d="M8.49875 7.36478C8.2837 7.36478 8.10986 7.53861 8.10986 7.75367V8.14255C8.10986 8.35761 8.2837 8.53144 8.49875 8.53144C8.71381 8.53144 8.88764 8.35761 8.88764 8.14255V7.75367C8.88764 7.53861 8.71381 7.36478 8.49875 7.36478Z" fill="white" fill-opacity="0.8"/>
<path d="M4.7529 13.0231C4.67901 13.097 4.63623 13.1981 4.63623 13.2988C4.63623 13.4042 4.67901 13.5049 4.74901 13.5753C4.8229 13.6488 4.92401 13.6877 5.02512 13.6877C5.13051 13.6877 5.22773 13.6488 5.30123 13.5753C5.37162 13.5018 5.41401 13.4046 5.41401 13.2988C5.41401 13.1981 5.37512 13.097 5.30123 13.0266C5.15734 12.8831 4.8929 12.8831 4.7529 13.0231Z" fill="white" fill-opacity="0.8"/>
</svg>
