<svg width="21" height="21" viewBox="0 0 21 21" fill="none" xmlns="http://www.w3.org/2000/svg">
<g clip-path="url(#clip0_224_59)">
<path d="M10.5 7.875C10.0167 7.875 9.625 8.26675 9.625 8.75V13.3591C9.10192 13.6617 8.75 14.2272 8.75 14.875C8.75 15.8415 9.53348 16.625 10.5 16.625C11.4665 16.625 12.25 15.8415 12.25 14.875C12.25 14.2272 11.8981 13.6617 11.375 13.3591V8.75C11.375 8.26675 10.9833 7.875 10.5 7.875Z" fill="white" fill-opacity="0.8"/>
<path d="M9.625 5.25C9.625 4.76675 10.0167 4.375 10.5 4.375C10.9833 4.375 11.375 4.76675 11.375 5.25C11.375 5.73325 10.9833 6.125 10.5 6.125C10.0167 6.125 9.625 5.73325 9.625 5.25Z" fill="white" fill-opacity="0.8"/>
<path d="M14 6.125C13.5167 6.125 13.125 6.51675 13.125 7C13.125 7.48325 13.5167 7.875 14 7.875C14.4833 7.875 14.875 7.48325 14.875 7C14.875 6.51675 14.4833 6.125 14 6.125Z" fill="white" fill-opacity="0.8"/>
<path d="M5.25 11.375C4.76675 11.375 4.375 10.9833 4.375 10.5C4.375 10.0167 4.76675 9.625 5.25 9.625C5.73325 9.625 6.125 10.0167 6.125 10.5C6.125 10.9833 5.73325 11.375 5.25 11.375Z" fill="white" fill-opacity="0.8"/>
<path d="M6.125 7C6.125 7.48325 6.51675 7.875 7 7.875C7.48325 7.875 7.875 7.48325 7.875 7C7.875 6.51675 7.48325 6.125 7 6.125C6.51675 6.125 6.125 6.51675 6.125 7Z" fill="white" fill-opacity="0.8"/>
<path d="M15.75 11.375C15.2667 11.375 14.875 10.9833 14.875 10.5C14.875 10.0167 15.2667 9.625 15.75 9.625C16.2333 9.625 16.625 10.0167 16.625 10.5C16.625 10.9833 16.2333 11.375 15.75 11.375Z" fill="white" fill-opacity="0.8"/>
<path fill-rule="evenodd" clip-rule="evenodd" d="M10.5 20.125C15.8157 20.125 20.125 15.8157 20.125 10.5C20.125 5.18426 15.8157 0.875 10.5 0.875C5.18426 0.875 0.875 5.18426 0.875 10.5C0.875 15.8157 5.18426 20.125 10.5 20.125ZM10.5 18.3691C6.15406 18.3691 2.63098 14.846 2.63098 10.5C2.63098 6.15406 6.15406 2.63098 10.5 2.63098C14.846 2.63098 18.3691 6.15406 18.3691 10.5C18.3691 14.846 14.846 18.3691 10.5 18.3691Z" fill="white" fill-opacity="0.8"/>
</g>
<defs>
<clipPath id="clip0_224_59">
<rect width="21" height="21" fill="white"/>
</clipPath>
</defs>
</svg>
