<svg width="20" height="20" viewBox="0 0 20 20" fill="none" xmlns="http://www.w3.org/2000/svg">
<path d="M0 6.66667C0 9.12127 1.98985 11.1111 4.44444 11.1111C6.89904 11.1111 8.88889 9.12127 8.88889 6.66667V4.44444C8.88889 1.98984 6.89904 0 4.44444 0C1.98985 0 0 1.98984 0 4.44444V6.66667ZM0 16.6667C0 18.5076 1.49238 20 3.33333 20H5.55555C7.3965 20 8.88889 18.5076 8.88889 16.6667C8.88889 14.8257 7.3965 13.3333 5.55555 13.3333H3.33334C1.49239 13.3333 0 14.8257 0 16.6667ZM11.1111 15.5556C11.1111 18.0102 13.101 20 15.5556 20C18.0102 20 20 18.0102 20 15.5556V13.3333C20 10.8787 18.0102 8.88889 15.5556 8.88889C13.101 8.88889 11.1111 10.8787 11.1111 13.3333V15.5556ZM14.4444 0C12.6035 0 11.1111 1.49238 11.1111 3.33333C11.1111 5.17428 12.6035 6.66667 14.4444 6.66667H16.6667C18.5076 6.66667 20 5.17428 20 3.33333C20 1.49238 18.5076 0 16.6667 0H14.4444Z" fill="white" fill-opacity="0.8"/>
</svg>
