<svg width="21" height="21" viewBox="0 0 21 21" fill="none" xmlns="http://www.w3.org/2000/svg">
<path fill-rule="evenodd" clip-rule="evenodd" d="M5.24994 0.875C4.94617 0.875 4.69297 1.03229 4.51633 1.2703C4.45435 1.35432 4.31089 1.55098 4.12038 1.82617C3.867 2.19217 3.52779 2.70085 3.18716 3.26857C2.84817 3.83358 2.49843 4.47247 2.23089 5.09674C1.97471 5.69452 1.74907 6.3437 1.75 7.0018C1.75055 7.18649 1.7726 7.3721 1.80291 7.55397C1.85346 7.85738 1.95621 8.27529 2.17045 8.70379C2.3864 9.1357 2.72408 9.59429 3.247 9.94289C3.77538 10.2952 4.44058 10.5 5.24995 10.5C6.05933 10.5 6.72452 10.2952 7.25291 9.94289C7.77583 9.59429 8.11353 9.13579 8.3295 8.70382C8.54375 8.27532 8.64652 7.85741 8.69708 7.55401C8.72743 7.37192 8.74976 7.18584 8.75 7.00088C8.75035 6.34277 8.52533 5.6946 8.26909 5.09672C8.00154 4.47245 7.65179 3.83356 7.31278 3.26856C6.97214 2.70085 6.63292 2.19216 6.37953 1.82615C6.18901 1.55097 6.04555 1.35432 5.98356 1.27028C5.80691 1.03228 5.55372 0.874997 5.24994 0.875ZM6.66059 5.7861C6.43594 5.26193 6.12943 4.69769 5.81217 4.16894C5.61924 3.84738 5.42576 3.54463 5.24997 3.27907C5.07417 3.54463 4.88072 3.84738 4.68779 4.16893C4.37055 4.69767 4.06405 5.26191 3.83941 5.78608L3.82668 5.81575C3.67207 6.17619 3.48929 6.60229 3.50016 7.00037C3.51064 7.3153 3.59529 7.64033 3.73572 7.92121C3.84787 8.14552 4.00236 8.34322 4.21772 8.4868C4.42761 8.62673 4.74679 8.75 5.24995 8.75C5.75311 8.75 6.0723 8.62673 6.28221 8.48679C6.49759 8.34321 6.65209 8.14551 6.76425 7.92118C6.90469 7.64032 6.98936 7.31526 6.99985 7.00033C7.01072 6.60232 6.82795 6.17625 6.67335 5.81585L6.66059 5.7861Z" fill="white" fill-opacity="0.8"/>
<path fill-rule="evenodd" clip-rule="evenodd" d="M15.7499 0.875C15.4462 0.875 15.193 1.03229 15.0163 1.2703C14.9544 1.35432 14.8109 1.55098 14.6204 1.82617C14.367 2.19217 14.0278 2.70085 13.6872 3.26857C13.3482 3.83358 12.9985 4.47247 12.7309 5.09674C12.4747 5.69452 12.249 6.3437 12.25 7.0018C12.2505 7.18649 12.2726 7.3721 12.3029 7.55397C12.3534 7.85738 12.4562 8.27529 12.6704 8.70379C12.8864 9.1357 13.2241 9.59429 13.747 9.94289C14.2754 10.2952 14.9405 10.5 15.7499 10.5C16.5593 10.5 17.2246 10.2952 17.7529 9.94289C18.2759 9.59429 18.6135 9.13579 18.8295 8.70382C19.0438 8.27532 19.1465 7.85741 19.1971 7.55401C19.2274 7.37192 19.2497 7.18584 19.25 7.00088C19.2504 6.34277 19.0253 5.6946 18.7691 5.09672C18.5015 4.47245 18.1518 3.83356 17.8128 3.26856C17.4722 2.70085 17.1329 2.19216 16.8795 1.82615C16.6891 1.55097 16.5456 1.35432 16.4836 1.27028C16.3069 1.03228 16.0537 0.874997 15.7499 0.875ZM17.1606 5.7861C16.936 5.26193 16.6295 4.69769 16.3122 4.16894C16.1193 3.84738 15.9258 3.54463 15.75 3.27907C15.5742 3.54463 15.3808 3.84738 15.1878 4.16893C14.8705 4.69767 14.564 5.26191 14.3394 5.78608L14.3267 5.81574C14.1721 6.17619 13.9893 6.60229 14.0002 7.00037C14.0107 7.3153 14.0953 7.64033 14.2357 7.92121C14.3479 8.14552 14.5023 8.34322 14.7178 8.4868C14.9276 8.62673 15.2468 8.75 15.7499 8.75C16.2531 8.75 16.5723 8.62673 16.7822 8.48679C16.9976 8.34321 17.1521 8.14551 17.2643 7.92118C17.4047 7.64032 17.4893 7.31526 17.4998 7.00033C17.5108 6.60233 17.328 6.17626 17.1734 5.81586L17.1606 5.7861Z" fill="white" fill-opacity="0.8"/>
<path fill-rule="evenodd" clip-rule="evenodd" d="M9.76632 10.8953C9.94298 10.6573 10.1962 10.5 10.4999 10.5C10.8037 10.5 11.0569 10.6572 11.2336 10.8953C11.2956 10.9793 11.4391 11.1759 11.6295 11.4511C11.8829 11.8171 12.2222 12.3259 12.5628 12.8936C12.9018 13.4586 13.2515 14.0975 13.5191 14.7217C13.7753 15.3196 14.0004 15.9678 14 16.6259C13.9997 16.8108 13.9774 16.997 13.9471 17.179C13.8965 17.4824 13.7938 17.9003 13.5795 18.3288C13.3635 18.7608 13.0259 19.2193 12.5029 19.5679C11.9746 19.9202 11.3093 20.125 10.4999 20.125C9.69054 20.125 9.02537 19.9202 8.497 19.5679C7.97408 19.2193 7.6364 18.7607 7.42045 18.3288C7.20621 17.9003 7.10346 17.4824 7.05291 17.179C7.0226 16.9971 7.00055 16.8115 7 16.6268C6.99907 15.9687 7.22471 15.3195 7.48089 14.7217C7.74843 14.0975 8.09817 13.4586 8.43716 12.8936C8.77783 12.3259 9.11698 11.8171 9.37038 11.4511C9.56087 11.176 9.70437 10.9793 9.76632 10.8953ZM11.0622 13.7939C11.3795 14.3227 11.686 14.8869 11.9106 15.4111C11.9148 15.421 11.9191 15.4309 11.9234 15.4409C12.078 15.8013 12.2608 16.2273 12.2498 16.6254C12.2393 16.9403 12.1547 17.2653 12.0143 17.5462C11.9021 17.7705 11.7476 17.9682 11.5322 18.1118C11.3223 18.2517 11.0031 18.375 10.4999 18.375C9.99679 18.375 9.67759 18.2517 9.46777 18.1118C9.25234 17.9682 9.0979 17.7705 8.98573 17.5462C8.84529 17.2653 8.76068 16.9403 8.75018 16.6254C8.73929 16.2273 8.92212 15.8012 9.07673 15.4408C9.08093 15.4308 9.08522 15.4209 9.08942 15.4111C9.31403 14.8869 9.62054 14.3227 9.93782 13.7939C10.1308 13.4724 10.3242 13.1696 10.5 12.9041C10.6758 13.1696 10.8693 13.4724 11.0622 13.7939Z" fill="white" fill-opacity="0.8"/>
</svg>
