<svg width="14" height="16" viewBox="0 0 14 16" fill="none" xmlns="http://www.w3.org/2000/svg">
<g clip-path="url(#clip0_224_283)">
<path d="M4.01454 4.71655C4.292 4.46288 6.09036 2.91496 6.32261 2.91496C6.55486 2.91496 8.58341 3.44346 8.58341 3.44346L10.3139 4.76118L11.0826 7.13355C11.0826 7.13355 11.8513 7.26509 12.5049 7.30972C13.1584 7.35435 13.4277 7.53051 13.4277 7.92513C13.4277 8.31974 13.2345 8.62979 12.696 8.62979C12.1575 8.62979 10.6202 8.54288 10.4352 8.27746C10.2502 8.01203 9.43429 6.39835 9.43429 6.39835L8.01204 8.90461C8.01204 8.90461 9.31919 9.91463 9.78163 10.2294C9.98101 10.3746 10.129 10.5957 10.1993 10.8537C10.2697 11.1117 10.2579 11.3898 10.166 11.6387C10.0118 12.0779 9.2822 14.408 8.9328 15.2419C8.58341 16.0757 8.00999 16.1204 7.6647 15.8573C7.31942 15.5942 7.31942 15.1526 7.51056 14.5819C7.7017 14.0111 8.51147 11.3733 8.51147 11.3733C8.51147 11.3733 6.35755 9.74786 6.04515 9.44015C5.73275 9.13245 5.85195 8.47241 5.93005 8.0778C6.00815 7.68319 7.70786 4.79407 7.70786 4.79407L6.28562 4.44174C5.93798 4.7115 5.57853 4.9608 5.20865 5.18868C4.63112 5.54101 4.10497 5.95441 3.79668 5.51517C3.63843 5.30143 3.83162 4.88567 4.01454 4.71655Z" fill="white" fill-opacity="0.3"/>
<path d="M5.13062 9.20056L4.28385 10.7602H1.70654C1.29549 10.7602 1.03447 11.23 1.03447 11.6176C1.02592 11.7201 1.03664 11.8236 1.06592 11.9211C1.0952 12.0185 1.14235 12.1077 1.20423 12.1827C1.26611 12.2576 1.34129 12.3166 1.42473 12.3557C1.50817 12.3947 1.59794 12.4129 1.68805 12.4091H4.91893L6.18703 10.4525C5.93895 10.35 5.71474 10.1838 5.53161 9.96675C5.34848 9.74972 5.21131 9.48762 5.13062 9.20056Z" fill="white" fill-opacity="0.3"/>
<path d="M9.39941 2.36532C9.39941 2.74969 9.53302 3.11831 9.77083 3.3901C10.0086 3.66189 10.3312 3.81458 10.6675 3.81458C11.0038 3.81458 11.3264 3.66189 11.5642 3.3901C11.802 3.11831 11.9356 2.74969 11.9356 2.36532C11.9356 1.98095 11.802 1.61233 11.5642 1.34054C11.3264 1.06875 11.0038 0.916061 10.6675 0.916061C10.3312 0.916061 10.0086 1.06875 9.77083 1.34054C9.53302 1.61233 9.39941 1.98095 9.39941 2.36532Z" fill="white" fill-opacity="0.3"/>
<path d="M7.83536 15.5989C7.6429 15.5987 7.45481 15.5333 7.29483 15.411C6.67825 14.9412 6.95982 14.098 7.05436 13.8232C7.21262 13.3534 7.80248 11.4344 7.99157 10.8166C7.49213 10.4384 5.92602 9.24519 5.65472 8.97507C5.23339 8.55462 5.38959 7.74426 5.46564 7.35669C5.54168 6.96913 6.55493 5.22861 7.07902 4.33603L6.08633 4.10114C5.9178 4.23033 5.51907 4.52629 5.07103 4.80581L4.87577 4.9256C4.35374 5.2521 3.76387 5.63027 3.36926 5.06184C3.30724 4.96356 3.26954 4.84798 3.26014 4.72729C3.25073 4.60659 3.26997 4.48522 3.31582 4.37596C3.38061 4.1845 3.48665 4.01483 3.62411 3.8827C3.64467 3.86391 5.70199 2.02238 6.07605 2.02238C6.31446 2.02238 7.91141 2.43109 8.39645 2.55558C8.42358 2.56275 8.44935 2.57548 8.4725 2.59316L10.203 3.91089C10.2434 3.94148 10.2744 3.98587 10.2914 4.03772L11.0128 6.26446C11.2594 6.30439 11.8041 6.38426 12.2809 6.41479C12.6221 6.43828 13.4216 6.49231 13.4216 7.29327C13.4216 7.89929 13.0619 8.26101 12.4597 8.26101C12.3734 8.26101 10.3346 8.26101 10.014 7.81473C9.86803 7.61507 9.43436 6.76947 9.17951 6.26212L8.08611 8.1882C8.46428 8.47946 9.31927 9.12775 9.65633 9.36264C9.90129 9.53989 10.0838 9.8101 10.1717 10.1258C10.2597 10.4416 10.2475 10.7826 10.1373 11.0891C10.0962 11.2089 10.0098 11.4696 9.90091 11.7937C9.60495 12.7051 9.15485 14.0815 8.89999 14.6969C8.83058 14.9011 8.72226 15.085 8.5829 15.2353C8.44355 15.3856 8.27665 15.4986 8.09433 15.566C8.00969 15.5902 7.92258 15.6013 7.83536 15.5989ZM6.04317 3.53741H6.09249L7.51474 3.88975C7.55177 3.89874 7.58629 3.91804 7.61523 3.94592C7.64417 3.97381 7.66665 4.00942 7.68068 4.04961C7.6947 4.08979 7.69984 4.13331 7.69563 4.17631C7.69142 4.2193 7.678 4.26045 7.65656 4.2961C6.84678 5.6608 5.9774 7.21811 5.92191 7.46004C5.86642 7.70198 5.74926 8.35027 5.96507 8.56637C6.18087 8.78246 7.81481 10.0297 8.40262 10.4784C8.44563 10.5107 8.47792 10.5586 8.49431 10.6144C8.5107 10.6701 8.51026 10.7306 8.49305 10.7861C8.46017 10.8941 7.68122 13.4332 7.49008 14.0017C7.28455 14.6406 7.40376 14.8449 7.55585 14.9624C7.61578 15.0075 7.68334 15.0377 7.75416 15.0511C7.82498 15.0644 7.89746 15.0606 7.9669 15.0399C8.08403 14.9896 8.19033 14.9111 8.27863 14.8098C8.36692 14.7085 8.43514 14.5867 8.47866 14.4527C8.7253 13.8584 9.18773 12.4373 9.46314 11.5917C9.57412 11.2535 9.66867 10.9857 9.70361 10.8636C9.77375 10.6742 9.78337 10.4626 9.73076 10.2659C9.67816 10.0693 9.56668 9.89999 9.41587 9.78779C8.95343 9.47304 7.68944 8.4959 7.636 8.45597C7.58598 8.41728 7.55127 8.35768 7.53935 8.29001C7.52743 8.22234 7.53926 8.15203 7.57229 8.09424L8.99454 5.58799C9.01623 5.54877 9.04676 5.51695 9.08292 5.49587C9.11909 5.47479 9.15955 5.46523 9.20006 5.46819C9.23962 5.46965 9.27818 5.48273 9.31202 5.50618C9.34587 5.52964 9.37384 5.56266 9.39326 5.60208C9.69744 6.21279 10.2154 7.2463 10.3633 7.4436C10.5463 7.58454 11.6808 7.70903 12.4618 7.70903C12.9016 7.70903 12.9612 7.48588 12.9612 7.26978C12.9612 7.15704 12.9612 6.96443 12.2563 6.91745C11.6006 6.87282 10.8443 6.74364 10.8176 6.73894C10.7766 6.73216 10.738 6.71287 10.7058 6.6831C10.6736 6.65334 10.649 6.6142 10.6346 6.56982L9.89064 4.27731L8.25875 3.0324C7.32566 2.79752 6.29597 2.54384 6.10072 2.5227C5.81298 2.64014 4.32496 3.89444 3.92007 4.26557C3.84637 4.33992 3.78929 4.43334 3.7536 4.53804C3.74137 4.56322 3.73362 4.59092 3.7308 4.61954C3.72798 4.64817 3.73014 4.67714 3.73715 4.70481C3.8728 4.89976 4.13588 4.76588 4.65997 4.43469L4.8655 4.31019C5.22746 4.08709 5.57936 3.84328 5.91985 3.57969C5.9566 3.55248 5.99938 3.53781 6.04317 3.53741Z" fill="white" fill-opacity="0.8"/>
<path d="M4.67225 12.0216H1.44136C1.32118 12.0248 1.20172 11.9994 1.09061 11.947C0.979496 11.8945 0.879166 11.8162 0.796016 11.7169C0.712867 11.6177 0.648722 11.4998 0.607671 11.3706C0.566621 11.2415 0.549567 11.104 0.557596 10.9669C0.551856 10.6826 0.642944 10.4069 0.811653 10.1979C0.980361 9.98885 1.2135 9.86287 1.46192 9.84651H3.90974L4.68869 8.41134C4.71175 8.36975 4.74455 8.33638 4.78338 8.31503C4.82221 8.29369 4.8655 8.28523 4.90833 8.29061C4.95115 8.296 4.9918 8.31501 5.02564 8.34549C5.05948 8.37597 5.08515 8.41669 5.09975 8.46302C5.16801 8.71042 5.28476 8.93676 5.44112 9.12481C5.59747 9.31286 5.7893 9.45766 6.00201 9.5482C6.03813 9.55957 6.07128 9.58084 6.09858 9.61018C6.12587 9.63951 6.14649 9.67601 6.15864 9.71651C6.17079 9.75702 6.17411 9.8003 6.1683 9.8426C6.1625 9.88491 6.14775 9.92495 6.12533 9.95926L4.85722 11.9159C4.83574 11.9488 4.80783 11.9754 4.77571 11.9938C4.74359 12.0122 4.70816 12.0217 4.67225 12.0216ZM1.46192 10.3774C1.18856 10.3774 1.02003 10.7226 1.02003 10.9716C1.01253 11.0393 1.018 11.108 1.03607 11.1729C1.05414 11.2379 1.08436 11.2976 1.12465 11.3479C1.16493 11.3982 1.21431 11.4379 1.26936 11.4641C1.32441 11.4904 1.3838 11.5027 1.44342 11.5001H4.55715L5.58479 9.91463C5.28409 9.72261 5.03256 9.44405 4.85517 9.10661L4.23859 10.2529C4.21709 10.2926 4.18672 10.3251 4.15059 10.347C4.11447 10.3688 4.0739 10.3793 4.03306 10.3774H1.45575H1.46192ZM10.4229 3.42937C10.1262 3.42937 9.83608 3.3288 9.58935 3.14039C9.34262 2.95198 9.15031 2.68418 9.03676 2.37086C8.9232 2.05755 8.89349 1.71278 8.95138 1.38017C9.00927 1.04755 9.15216 0.742023 9.36199 0.50222C9.57182 0.262417 9.83916 0.0991094 10.1302 0.0329479C10.4212 -0.0332135 10.7229 0.000742942 10.9971 0.130523C11.2712 0.260304 11.5055 0.480079 11.6704 0.762057C11.8353 1.04404 11.9232 1.37555 11.9232 1.71468C11.9227 2.16926 11.7645 2.60503 11.4832 2.92646C11.202 3.24789 10.8206 3.42875 10.4229 3.42937ZM10.4229 0.528499C10.2176 0.528499 10.0169 0.598068 9.84626 0.728407C9.67558 0.858747 9.54255 1.044 9.46399 1.26075C9.38543 1.4775 9.36488 1.716 9.40493 1.9461C9.44498 2.17619 9.54383 2.38755 9.68898 2.55344C9.83414 2.71933 10.0191 2.83231 10.2204 2.87808C10.4217 2.92385 10.6304 2.90036 10.8201 2.81058C11.0097 2.7208 11.1718 2.56876 11.2859 2.37369C11.3999 2.17863 11.4608 1.94929 11.4608 1.71468C11.4603 1.40028 11.3507 1.09893 11.1562 0.87661C10.9617 0.654292 10.698 0.52912 10.4229 0.528499Z" fill="white" fill-opacity="0.8"/>
</g>
<defs>
<clipPath id="clip0_224_283">
<rect width="14" height="16" fill="white"/>
</clipPath>
</defs>
</svg>
