<svg width="20" height="20" viewBox="0 0 20 20" fill="none" xmlns="http://www.w3.org/2000/svg">
<path d="M17.6442 10.98C17.6854 10.66 17.7162 10.34 17.7162 10C17.7162 9.66 17.6854 9.34 17.6442 9.02L19.8139 7.37C20.0092 7.22 20.0606 6.95 19.9373 6.73L17.8807 3.27C17.7573 3.05 17.4797 2.97 17.2535 3.05L14.6931 4.05C14.1584 3.65 13.5826 3.32 12.9554 3.07L12.5646 0.42C12.5338 0.18 12.3179 0 12.0608 0H7.94775C7.69069 0 7.47476 0.18 7.44391 0.42L7.05317 3.07C6.42593 3.32 5.85011 3.66 5.31541 4.05L2.75505 3.05C2.51855 2.96 2.2512 3.05 2.12781 3.27L0.0712908 6.73C-0.0623829 6.95 -0.000687188 7.22 0.194682 7.37L2.36431 9.02C2.32318 9.34 2.29233 9.67 2.29233 10C2.29233 10.33 2.32318 10.66 2.36431 10.98L0.194682 12.63C-0.000687188 12.78 -0.0521003 13.05 0.0712908 13.27L2.12781 16.73C2.2512 16.95 2.52883 17.03 2.75505 16.95L5.31541 15.95C5.85011 16.35 6.42593 16.68 7.05317 16.93L7.44391 19.58C7.47476 19.82 7.69069 20 7.94775 20H12.0608C12.3179 20 12.5338 19.82 12.5646 19.58L12.9554 16.93C13.5826 16.68 14.1584 16.34 14.6931 15.95L17.2535 16.95C17.49 17.04 17.7573 16.95 17.8807 16.73L19.9373 13.27C20.0606 13.05 20.0092 12.78 19.8139 12.63L17.6442 10.98ZM10.0043 13.5C8.01973 13.5 6.40537 11.93 6.40537 10C6.40537 8.07 8.01973 6.5 10.0043 6.5C11.9888 6.5 13.6032 8.07 13.6032 10C13.6032 11.93 11.9888 13.5 10.0043 13.5Z" fill="white" fill-opacity="0.8"/>
</svg>
