<svg width="17" height="17" viewBox="0 0 17 17" fill="none" xmlns="http://www.w3.org/2000/svg">
<path d="M1.75393 8.49999C1.56764 8.49999 1.41663 8.34898 1.41663 8.16269C1.41663 5.01375 3.57416 2.36872 6.49161 1.62523C6.38385 1.76167 6.28385 1.90561 6.19125 2.05384C5.67004 2.88829 5.30776 3.97043 5.05336 5.00902C4.79702 6.05554 4.6411 7.09686 4.5492 7.87305C4.5214 8.10786 4.49937 8.31923 4.48215 8.49999H1.75393Z" fill="white" fill-opacity="0.8"/>
<path d="M15.5833 8.16269C15.5833 8.34898 15.4323 8.49999 15.246 8.49999H12.5178C12.5006 8.31923 12.4785 8.10786 12.4507 7.87305C12.3588 7.09686 12.2029 6.05554 11.9466 5.00902C11.6921 3.97043 11.3299 2.88829 10.8086 2.05384C10.7161 1.90561 10.6161 1.76166 10.5083 1.62523C13.4258 2.36872 15.5833 5.01375 15.5833 8.16269Z" fill="white" fill-opacity="0.8"/>
<path d="M7.96871 14.1667V8.5H5.54966C5.56453 8.35026 5.58258 8.18167 5.60433 7.998C5.69325 7.24689 5.84287 6.25174 6.08535 5.26181C6.32977 4.26394 6.65962 3.30962 7.09243 2.61672C7.52898 1.91774 7.99612 1.59375 8.49996 1.59375C9.0038 1.59375 9.47094 1.91774 9.90749 2.61672C10.3403 3.30962 10.6702 4.26394 10.9146 5.26181C11.1571 6.25174 11.3067 7.24689 11.3956 7.998C11.4173 8.18167 11.4354 8.35026 11.4502 8.5H9.03121V14.1667C9.03121 15.2425 8.15911 16.1146 7.08329 16.1146C6.00749 16.1146 5.13538 15.2425 5.13538 14.1667V13.4583C5.13538 13.1649 5.37323 12.9271 5.66663 12.9271C5.96002 12.9271 6.19788 13.1649 6.19788 13.4583V14.1667C6.19788 14.6557 6.59429 15.0521 7.08329 15.0521C7.57233 15.0521 7.96871 14.6557 7.96871 14.1667Z" fill="white" fill-opacity="0.8"/>
</svg>
