<svg width="21" height="21" viewBox="0 0 21 21" fill="none" xmlns="http://www.w3.org/2000/svg">
<g clip-path="url(#clip0_234_2)">
<path d="M18 10.9465H4V11.8215H18V10.9465Z" fill="white" fill-opacity="0.8"/>
<path d="M18.1 10.9465V10.8465H18H4H3.9V10.9465V11.8215V11.9215H4H18H18.1V11.8215V10.9465Z" stroke="white" stroke-opacity="0.8" stroke-width="0.2"/>
<path d="M10.2339 13.1718H9.48452C9.44906 13.1718 9.42557 13.1953 9.42557 13.2308V15.7325C9.42557 16.2106 9.15981 16.4819 8.75865 16.4819C8.35148 16.4819 8.08616 16.2106 8.08616 15.7325V13.2308C8.08616 13.1953 8.06226 13.1718 8.02721 13.1718H7.27783C7.24236 13.1718 7.21887 13.1953 7.21887 13.2308V15.7088C7.21887 16.7062 7.8559 17.249 8.75868 17.249C9.65547 17.249 10.2929 16.7062 10.2929 15.7088V13.2308C10.2929 13.1953 10.2694 13.1718 10.2339 13.1718Z" fill="white" fill-opacity="0.8"/>
<path d="M10.3929 13.2308L10.3929 13.2306C10.3928 13.1904 10.379 13.1489 10.3474 13.1172C10.3157 13.0856 10.2742 13.0718 10.2339 13.0718H9.48452C9.44423 13.0718 9.40272 13.0856 9.37103 13.1173C9.33935 13.149 9.32557 13.1905 9.32557 13.2308V15.7325C9.32557 15.9535 9.26433 16.1144 9.16872 16.219C9.074 16.3227 8.93579 16.3819 8.75865 16.3819C8.5781 16.3819 8.43853 16.3224 8.34335 16.2188C8.24731 16.1143 8.18616 15.9535 8.18616 15.7325V13.2308C8.18616 13.19 8.17196 13.1485 8.14037 13.1171C8.10884 13.0857 8.06754 13.0718 8.02721 13.0718H7.27783C7.23753 13.0718 7.19603 13.0856 7.16434 13.1173C7.13265 13.149 7.11887 13.1905 7.11887 13.2308V15.7088C7.11887 16.2295 7.28575 16.6426 7.5811 16.9252C7.87572 17.2071 8.2875 17.349 8.75868 17.349C9.22703 17.349 9.63741 17.207 9.93132 16.9251C10.2259 16.6425 10.3929 16.2295 10.3929 15.7088L10.3929 13.2308Z" stroke="white" stroke-opacity="0.8" stroke-width="0.2"/>
<path d="M14.7311 13.1718H13.9697C13.9283 13.1718 13.9048 13.1895 13.8928 13.2308L13.1139 15.8624H13.0964L12.2941 13.2308C12.2821 13.1895 12.2586 13.1718 12.2172 13.1718H11.4503C11.4088 13.1718 11.3853 13.1953 11.3973 13.2367L12.6717 17.1251C12.6833 17.1606 12.7068 17.1841 12.7482 17.1841H13.4327C13.4682 17.1841 13.4916 17.1606 13.5036 17.1251L14.7781 13.2367C14.79 13.1953 14.7661 13.1718 14.7311 13.1718Z" fill="white" fill-opacity="0.8"/>
<path d="M11.3011 13.2645L11.3012 13.2644C11.2891 13.2223 11.2898 13.1676 11.3281 13.1233C11.3637 13.0822 11.4133 13.0718 11.4503 13.0718H12.2172C12.2518 13.0718 12.2919 13.0793 12.3274 13.1063C12.3622 13.133 12.3802 13.1692 12.3899 13.2022L13.1039 15.544L13.7968 13.2029C13.7968 13.2028 13.7969 13.2027 13.7969 13.2026L13.7969 13.2024L13.8928 13.2308C13.9048 13.1895 13.9283 13.1718 13.9697 13.1718H14.7311C14.7661 13.1718 14.79 13.1953 14.7781 13.2367L11.3011 13.2645ZM11.3011 13.2645L11.3023 13.2679L12.5766 17.156C12.5767 17.1561 12.5767 17.1561 12.5767 17.1562M11.3011 13.2645L12.5767 17.1562M12.5767 17.1562L12.5767 17.1563L12.6717 17.1251L12.5767 17.1562Z" stroke="white" stroke-opacity="0.8" stroke-width="0.2"/>
<path d="M13.7214 7.98973L14.3436 8.68401L15.419 6.06134L12.6945 6.84427L13.2599 7.4749L10.7129 9.54296L4.81008 4.751L4.37512 5.28674L10.7129 10.4321L13.7214 7.98973Z" fill="white" fill-opacity="0.8"/>
<path d="M13.1154 7.46346L10.7129 9.41415L4.87311 4.67336L4.79547 4.61033L4.73244 4.68797L4.29749 5.22371L4.23446 5.30135L4.31209 5.36438L10.6499 10.5097L10.7129 10.5609L10.7759 10.5097L13.7104 8.12739L14.2692 8.75076L14.3756 8.86955L14.4362 8.72195L15.5115 6.09927L15.5899 5.90819L15.3914 5.96523L12.6669 6.74816L12.5135 6.79223L12.62 6.91103L13.1154 7.46346Z" stroke="white" stroke-opacity="0.8" stroke-width="0.2"/>
</g>
<circle cx="10.5" cy="10.5" r="9.74" stroke="white" stroke-opacity="0.8" stroke-width="1.52"/>
<defs>
<clipPath id="clip0_234_2">
<rect width="14" height="14" fill="white" transform="translate(4 4)"/>
</clipPath>
</defs>
</svg>
