<svg width="22" height="22" viewBox="0 0 22 22" fill="none" xmlns="http://www.w3.org/2000/svg">
<path d="M2.75 7.33333H4.58333M6.41667 5.36905V5.04167C6.41667 3.77602 7.44268 2.75 8.70833 2.75C9.97398 2.75 11 3.77602 11 5.04167C11 6.30732 9.97398 7.33333 8.70833 7.33333H7.33333" stroke="#EEEEEE" stroke-opacity="0.8" stroke-width="2" stroke-linecap="round"/>
<path d="M3.66663 12.8333H4.58329M13.75 15.5833V16.0417C13.75 17.8136 15.1864 19.25 16.9583 19.25C18.7302 19.25 20.1666 17.8136 20.1666 16.0417C20.1666 14.2698 18.7302 12.8333 16.9583 12.8333H8.24996" stroke="#EEEEEE" stroke-opacity="0.8" stroke-width="2" stroke-linecap="round"/>
<path d="M1.83337 10.0833H7.33337M13.75 7.33332V6.87499C13.75 5.10307 15.1865 3.66666 16.9584 3.66666C18.7303 3.66666 20.1667 5.10307 20.1667 6.87499C20.1667 8.64691 18.7303 10.0833 16.9584 10.0833H11.2292" stroke="#EEEEEE" stroke-opacity="0.8" stroke-width="2" stroke-linecap="round"/>
</svg>
