<svg width="21" height="26" viewBox="0 0 21 26" fill="none" xmlns="http://www.w3.org/2000/svg">
<path d="M20.7764 12.3795C20.5584 12.1365 15.3837 6.43602 10.4999 6.43602C5.61631 6.43602 0.441565 12.1365 0.223334 12.3795C0.0810758 12.5378 0 12.7639 0 13.0005C0 13.2369 0.0810758 13.4629 0.223291 13.6211C0.441522 13.8643 5.61627 19.5639 10.4998 19.5639C15.3837 19.5639 20.5584 13.8643 20.7764 13.6211C20.9188 13.4629 21 13.2369 21 13.0005C21 12.7639 20.9188 12.5378 20.7764 12.3795ZM10.4998 17.7251C8.39604 17.7251 6.68376 15.6059 6.68376 13.0005C6.68376 10.3948 8.39604 8.27555 10.4998 8.27555C12.6037 8.27555 14.3161 10.3948 14.3161 13.0005C14.3162 15.6059 12.6038 17.7251 10.4998 17.7251ZM6.17981 9.50405C5.64722 10.5099 5.33428 11.7098 5.33428 13.0005C5.33428 14.2891 5.64589 15.4876 6.17831 16.4935C4.24651 15.3677 2.57762 13.8423 1.72699 12.9997C2.57758 12.1561 4.24651 10.629 6.17981 9.50405ZM14.8202 16.4958C15.3525 15.4901 15.6656 14.2902 15.6656 13.0005C15.6656 11.7115 15.3533 10.5123 14.8215 9.50644C16.7527 10.6323 18.4217 12.1577 19.2728 13.0005C18.4222 13.844 16.7535 15.3701 14.8202 16.4958Z" fill="white" fill-opacity="0.8"/>
<path d="M10.4998 10.3118C9.30004 10.3118 8.32825 11.5149 8.32825 13.0005C8.32825 14.4858 9.30004 15.689 10.4998 15.689C11.6997 15.689 12.6716 14.4858 12.6716 13.0005C12.6717 11.5149 11.6998 10.3118 10.4998 10.3118ZM10.4998 12.0125C10.0598 12.0125 9.70199 12.4556 9.70199 13.0005C9.70199 13.2313 9.55051 13.4179 9.3647 13.4179C9.17755 13.4179 9.02732 13.2312 9.02732 13.0005C9.02732 11.9954 9.68758 11.1772 10.4998 11.1772C10.6864 11.1772 10.8373 11.364 10.8373 11.5948C10.8373 11.8258 10.6863 12.0125 10.4998 12.0125Z" fill="white" fill-opacity="0.8"/>
</svg>
